PathFileType	4	(X/Y/Z)	/Users/itak/Documents/Research/Walk-IL/dataset/trc/00403_00012.trc
DataRate	CameraRate	NumFrames	NumMarkers	Units	OrigDataRate	OrigDataStartFrame	OrigNumFrames
100.000000	100.000000	4	53	mm	100.000000	424	566
Frame#	Time	RPSI			LPSI			L3			STRN			T10			C7			CLAV			RBAK			LBAK			LSHO			LUPA			LAEL			LAOL			LWTS			LWPS			LFRA			LHPS			LHTS			RSHO			RUPA			RAEL			RAOL			RWTS			RWPS			RFRA			RIFD			RHTS			RHPS			RBHD			LFHD			RFHD			LBHD			LHIP			RHIP			RASI			LASI			LKNE			LTHI			LANK			LTIP			LTOE			LMT1			LMT5			LHEE			RKNE			RTHI			RANK			RTIP			RTOE			RMT1			RMT5			RHEE			LIFD			
		X1	Y1	Z1	X2	Y2	Z2	X3	Y3	Z3	X4	Y4	Z4	X5	Y5	Z5	X6	Y6	Z6	X7	Y7	Z7	X8	Y8	Z8	X9	Y9	Z9	X10	Y10	Z10	X11	Y11	Z11	X12	Y12	Z12	X13	Y13	Z13	X14	Y14	Z14	X15	Y15	Z15	X16	Y16	Z16	X17	Y17	Z17	X18	Y18	Z18	X19	Y19	Z19	X20	Y20	Z20	X21	Y21	Z21	X22	Y22	Z22	X23	Y23	Z23	X24	Y24	Z24	X25	Y25	Z25	X26	Y26	Z26	X27	Y27	Z27	X28	Y28	Z28	X29	Y29	Z29	X30	Y30	Z30	X31	Y31	Z31	X32	Y32	Z32	X33	Y33	Z33	X34	Y34	Z34	X35	Y35	Z35	X36	Y36	Z36	X37	Y37	Z37	X38	Y38	Z38	X39	Y39	Z39	X40	Y40	Z40	X41	Y41	Z41	X42	Y42	Z42	X43	Y43	Z43	X44	Y44	Z44	X45	Y45	Z45	X46	Y46	Z46	X47	Y47	Z47	X48	Y48	Z48	X49	Y49	Z49	X50	Y50	Z50	X51	Y51	Z51	X52	Y52	Z52	X53	Y53	Z53	

425	4.24	785.2258911132812	918.5673217773438	-481.3307495117188	860.190185546875	926.5888061523438	-588.0601196289062	823.0054931640625	1004.032287597656	-533.817138671875	991.4599609375	1159.63525390625	-376.7745056152344	811.4810180664062	1106.180541992188	-551.7741088867188	846.6571044921875	1355.15673828125	-527.1853637695312	949.2321166992188	1278.326782226562	-410.5500183105469	775.27294921875	1205.406372070312	-523.015380859375	911.8483276367188	1326.238525390625	-609.8082275390625	1007.069274902344	1345.043334960938	-580.112060546875	1044.488403320312	1230.370727539062	-648.3709106445312	1103.321899414062	1045.528198242188	-660.4596557617188	1027.439086914062	1004.413513183594	-647.335205078125	1245.995361328125	939.2386474609375	-536.5818481445312	1250.439575195312	890.6964111328125	-603.1295776367188	1160.890502929688	970.3027954101562	-642.687744140625	1307.4970703125	840.8955078125	-561.0338134765625	1325.878295898438	882.6506958007812	-516.3734130859375	764.7855224609375	1324.964111328125	-386.6835021972656	710.1717529296875	1262.518676757812	-374.2559814453125	658.051513671875	1009.144897460938	-413.0946044921875	748.0962524414062	999.5906982421875	-457.3597717285156	688.0866088867188	769.6439208984375	-348.7994079589844	611.9916381835938	778.5328979492188	-381.8557434082031	638.4970703125	944.2698974609375	-400.0370178222656	659.81005859375	596.8696899414062	-382.1897583007812	661.3548583984375	663.4840087890625	-351.2647705078125	598.3203125	691.5006103515625	-405.8872680664062	801.7257080078125	1536.382202148438	-446.481689453125	995.6743774414062	1549.68310546875	-403.9792785644531	888.6077880859375	1545.38720703125	-344.4344177246094	932.1026000976562	1537.972900390625	-538.12060546875	997.2174072265625	926.0111694335938	-630.31640625	787.647216796875	892.5739135742188	-340.287353515625	927.0210571289062	914.5955810546875	-309.4690246582031	1071.73974609375	919.8397827148438	-531.4942016601562	975.9602661132812	441.0503234863281	-652.4013671875	996.4231567382812	581.052490234375	-641.3536987304688	725.625244140625	74.81481170654297	-800.104736328125	852.8458251953125	255.7993621826172	-744.0401611328125	876.8568725585938	30.80961227416992	-647.767333984375	796.4239501953125	47.57389831542969	-656.4810791015625	857.6936645507812	54.53654479980469	-737.5695190429688	667.1519165039062	92.03302001953125	-769.2647094726562	978.790283203125	434.9673461914062	-280.8201904296875	894.7922973632812	684.4453125	-276.3122863769531	1112.986083984375	34.00100326538086	-285.9985961914062	1033.260131835938	322.2850036621094	-266.6061706542969	1252.629760742188	56.52729034423828	-167.0904541015625	1244.024047851562	53.19339370727539	-244.9651031494141	1149.812744140625	37.45932006835938	-211.4506683349609	1124.50439453125	20.2898998260498	-373.9691772460938	1361.504638671875	814.97509765625	-477.9263916015625	
426	4.25	793.1886596679688	919.8438720703125	-473.3847045898438	869.6292724609375	926.5204467773438	-579.71630859375	832.335693359375	1004.210388183594	-525.8134765625	998.6658325195312	1160.443725585938	-368.7174987792969	819.977783203125	1106.181274414062	-544.472412109375	854.1206665039062	1355.196044921875	-520.4977416992188	956.2638549804688	1278.939086914062	-403.0133666992188	783.255126953125	1205.251831054688	-516.3072509765625	919.7977294921875	1326.181274414062	-602.61572265625	1014.826110839844	1345.25830078125	-572.4623413085938	1052.294189453125	1230.439575195312	-640.3917236328125	1110.253662109375	1044.995239257812	-652.1546630859375	1033.844360351562	1004.717163085938	-639.39794921875	1250.557006835938	935.222412109375	-528.0938720703125	1254.421508789062	886.7454833984375	-594.7881469726562	1166.755249023438	968.704345703125	-634.380615234375	1310.030639648438	835.5809936523438	-552.2097778320312	1328.87255859375	876.6854248046875	-507.2078857421875	771.5128784179688	1325.241943359375	-380.4365234375	717.0111083984375	1262.572631835938	-368.0991821289062	665.8401489257812	1008.829528808594	-405.3263854980469	756.2921142578125	999.1115112304688	-449.0842590332031	696.6666259765625	769.8555908203125	-338.7698364257812	620.4663696289062	778.3233032226562	-371.9397583007812	646.4507446289062	943.9218139648438	-391.7794494628906	668.3082885742188	597.1640014648438	-373.0003662109375	669.6123657226562	663.7129516601562	-341.8107299804688	607.7449340820312	691.0513916015625	-395.164794921875	808.4219360351562	1536.758544921875	-440.3589782714844	1002.040161132812	1550.1494140625	-396.4923706054688	894.6015625	1545.77099609375	-337.7033081054688	939.4503784179688	1538.479736328125	-531.0724487304688	1006.994018554688	925.3809204101562	-620.8575439453125	794.8681640625	894.28369140625	-332.2777404785156	933.9829711914062	915.7738037109375	-300.4638977050781	1080.473022460938	919.4100341796875	-521.3657836914062	988.4832763671875	440.70947265625	-642.6631469726562	1007.8798828125	580.1278076171875	-631.15185546875	731.3792724609375	82.26216125488281	-799.6866455078125	862.1683959960938	260.0169677734375	-738.93212890625	877.0188598632812	30.86155891418457	-648.0973510742188	798.64453125	49.67198181152344	-656.6170654296875	860.8485717773438	57.17561721801758	-736.8661499023438	674.0506591796875	102.2291107177734	-768.4915771484375	985.623779296875	435.6964416503906	-273.753173828125	901.600341796875	685.4232177734375	-267.7972717285156	1114.353515625	34.02850341796875	-285.4853820800781	1039.641479492188	322.099853515625	-261.0718078613281	1255.060791015625	49.59735107421875	-165.5201721191406	1246.362670898438	48.48240280151367	-243.8821105957031	1151.252563476562	35.91869354248047	-211.1070251464844	1125.569946289062	21.44922065734863	-373.715087890625	1362.454223632812	808.5435791015625	-468.6266479492188	
427	4.26	800.970458984375	921.4534301757812	-465.4335632324219	878.9824829101562	926.7172241210938	-571.326904296875	841.56298828125	1004.706420898438	-517.6890869140625	1005.749633789062	1161.621459960938	-360.5490417480469	828.6367797851562	1106.42919921875	-537.03369140625	861.5352172851562	1355.50439453125	-513.7786254882812	963.192138671875	1279.908813476562	-395.4186401367188	791.1707153320312	1205.409790039062	-509.5377502441406	927.67431640625	1326.384399414062	-595.3539428710938	1022.506713867188	1345.769653320312	-564.7594604492188	1060.01318359375	1230.8251953125	-632.3643798828125	1117.064331054688	1044.76123046875	-643.8013305664062	1040.122314453125	1005.363525390625	-631.3380126953125	1254.820068359375	930.9335327148438	-519.7299194335938	1258.011108398438	882.7462158203125	-586.7239379882812	1172.42041015625	967.2904052734375	-626.1337890625	1312.033935546875	830.033935546875	-543.9057006835938	1331.402221679688	870.253173828125	-498.4033203125	778.1448364257812	1325.880126953125	-374.1993408203125	723.7725830078125	1263.018310546875	-361.9022216796875	673.6242065429688	1008.8759765625	-397.3690795898438	764.3245239257812	999.017822265625	-440.6493225097656	705.0486450195312	770.5684204101562	-328.3780212402344	629.0313720703125	778.444580078125	-361.5029907226562	654.4261474609375	943.9374389648438	-383.2731018066406	676.683349609375	597.943359375	-363.2976989746094	677.73095703125	664.4214477539062	-331.8370971679688	617.2113037109375	690.9461059570312	-383.7963562011719	815.0542602539062	1537.412231445312	-434.2029113769531	1008.311584472656	1550.905517578125	-388.9681091308594	900.5078125	1546.4306640625	-330.9375	946.7181396484375	1539.2998046875	-523.99169921875	1016.729187011719	925.01904296875	-611.205078125	801.78515625	896.2860717773438	-324.3492736816406	940.5743408203125	917.2444458007812	-291.3363647460938	1089.008422851562	919.2838745117188	-510.948486328125	1001.932556152344	440.5352172851562	-632.3915405273438	1019.916625976562	579.37646484375	-620.4965209960938	738.6284790039062	90.52435302734375	-799.0855712890625	872.8899536132812	264.4139099121094	-733.2947998046875	877.1259765625	30.91718101501465	-648.41162109375	801.257080078125	52.00778579711914	-656.7625122070312	864.3963012695312	60.05280303955078	-736.1714477539062	682.6199340820312	113.2559204101562	-767.55224609375	992.3592529296875	436.666015625	-266.7713623046875	908.2077026367188	686.6287231445312	-259.3453674316406	1115.661010742188	34.26756286621094	-285.0278015136719	1045.826171875	322.1656188964844	-255.6790771484375	1257.480590820312	43.64996337890625	-164.4591217041016	1248.531860351562	44.49725723266602	-243.2292022705078	1152.739990234375	34.92005920410156	-210.9101257324219	1126.41943359375	22.58984184265137	-373.494873046875	1362.80859375	801.5629272460938	-460.0415344238281	
428	4.27	808.6146850585938	923.2849731445312	-457.555908203125	888.2059326171875	927.1345825195312	-562.9476928710938	850.6483154296875	1005.492492675781	-509.494384765625	1012.685974121094	1163.11376953125	-352.2773742675781	837.460205078125	1106.892456054688	-529.48974609375	868.9078979492188	1356.0517578125	-507.0322265625	970.0099487304688	1281.189819335938	-387.7728576660156	799.0111083984375	1205.853881835938	-502.7275085449219	935.4952392578125	1326.826904296875	-588.0257568359375	1030.126586914062	1346.544799804688	-556.994384765625	1067.674926757812	1231.49853515625	-624.2769775390625	1123.750122070312	1044.798828125	-635.4044799804688	1046.277954101562	1006.316711425781	-623.159912109375	1258.776611328125	926.394775390625	-511.5060424804688	1261.210571289062	878.718994140625	-578.9405517578125	1177.88427734375	966.0406494140625	-617.953125	1313.513427734375	824.2971801757812	-536.1527099609375	1333.468994140625	863.4092407226562	-490.0104370117188	784.6868896484375	1326.848876953125	-367.9782104492188	730.4501953125	1263.82861328125	-355.6748657226562	681.3744506835938	1009.262878417969	-389.2381896972656	772.1371459960938	999.2938232421875	-432.0765991210938	713.2152099609375	771.7840576171875	-317.6072998046875	637.6509399414062	778.890625	-350.56103515625	662.3939819335938	944.297607421875	-374.5284118652344	684.9677734375	599.1993408203125	-352.9884948730469	685.7263793945312	665.6053466796875	-321.2660522460938	626.659912109375	691.187255859375	-371.8039855957031	821.6189575195312	1538.29248046875	-428.03271484375	1014.487854003906	1551.921997070312	-381.4201354980469	906.3206787109375	1547.337768554688	-324.15478515625	953.9110107421875	1540.378784179688	-516.892333984375	1026.371459960938	924.8984375	-601.418701171875	808.371826171875	898.4911499023438	-316.5835571289062	946.7740478515625	918.9324340820312	-282.1515502929688	1097.311401367188	919.44580078125	-500.3239135742188	1016.266296386719	440.497314453125	-621.5465087890625	1032.509521484375	578.7852783203125	-609.392822265625	747.5460815429688	99.53667449951172	-798.2293090820312	885.087158203125	268.8588256835938	-727.0463256835938	877.2179565429688	30.90026473999023	-648.6506958007812	804.3319091796875	54.57992553710938	-656.884033203125	868.4070434570312	63.16652297973633	-735.4519653320312	692.9814453125	124.9751663208008	-766.4107666015625	998.9380493164062	437.8009643554688	-259.9212341308594	914.6304321289062	688.0219116210938	-251.0123748779297	1116.8818359375	34.63864135742188	-284.6072998046875	1051.72314453125	322.4037780761719	-250.4662017822266	1259.782470703125	38.76158905029297	-163.8109130859375	1250.468994140625	41.27950286865234	-242.91259765625	1154.207885742188	34.37054824829102	-210.8025360107422	1127.075561523438	23.63115119934082	-373.2793579101562	1362.590942382812	794.0858154296875	-452.2326354980469	
